<mxfile host="65bd71144e">
    <diagram id="5IjUOI2yHHM9aHe_WYSw" name="Page-1">
        <mxGraphModel dx="741" dy="609" grid="1" gridSize="10" guides="1" tooltips="1" connect="1" arrows="1" fold="1" page="1" pageScale="1" pageWidth="1169" pageHeight="827" math="0" shadow="0">
            <root>
                <mxCell id="0"/>
                <mxCell id="1" parent="0"/>
                <mxCell id="11" value="Query" style="swimlane;fontStyle=1;align=center;verticalAlign=top;childLayout=stackLayout;horizontal=1;startSize=26;horizontalStack=0;resizeParent=1;resizeParentMax=0;resizeLast=0;collapsible=1;marginBottom=0;" vertex="1" collapsed="1" parent="1">
                    <mxGeometry x="90" y="380" width="100" height="26" as="geometry">
                        <mxRectangle x="320" y="70" width="480" height="290" as="alternateBounds"/>
                    </mxGeometry>
                </mxCell>
                <mxCell id="12" value="- CLASS_NAME_HASH: int" style="text;strokeColor=none;fillColor=none;align=left;verticalAlign=top;spacingLeft=4;spacingRight=4;overflow=hidden;rotatable=0;points=[[0,0.5],[1,0.5]];portConstraint=eastwest;" vertex="1" parent="11">
                    <mxGeometry y="26" width="100" height="26" as="geometry"/>
                </mxCell>
                <mxCell id="13" value="" style="line;strokeWidth=1;fillColor=none;align=left;verticalAlign=middle;spacingTop=-1;spacingLeft=3;spacingRight=3;rotatable=0;labelPosition=right;points=[];portConstraint=eastwest;" vertex="1" parent="11">
                    <mxGeometry y="52" width="100" height="8" as="geometry"/>
                </mxCell>
                <mxCell id="14" value="+ createWeight(searcher: IndexSearcher, scoreMode: ScoreMode, boost: float): Weight&#10;&#10;+ rewrite(reader: IndexReader): Query&#10;&#10;+ toString(field: String): String&#10;&#10;+ visit(visitoer: QueryVisitor): void&#10;&#10;+ equals(obj: Object): boolean&#10;&#10;+ hashCode(): int&#10;&#10;# sameClassAs(other: Object): boolean&#10;&#10;# classHash(): int" style="text;strokeColor=none;fillColor=none;align=left;verticalAlign=top;spacingLeft=4;spacingRight=4;overflow=hidden;rotatable=0;points=[[0,0.5],[1,0.5]];portConstraint=eastwest;" vertex="1" parent="11">
                    <mxGeometry y="60" width="100" height="230" as="geometry"/>
                </mxCell>
                <mxCell id="32" style="edgeStyle=none;html=1;exitX=0;exitY=0.5;exitDx=0;exitDy=0;endArrow=block;endFill=0;rounded=0;entryX=0.5;entryY=0;entryDx=0;entryDy=0;" edge="1" parent="1" source="28" target="11">
                    <mxGeometry relative="1" as="geometry">
                        <mxPoint x="130" y="300" as="targetPoint"/>
                    </mxGeometry>
                </mxCell>
                <mxCell id="28" value="TermQuery" style="swimlane;fontStyle=1;align=center;verticalAlign=top;childLayout=stackLayout;horizontal=1;startSize=26;horizontalStack=0;resizeParent=1;resizeParentMax=0;resizeLast=0;collapsible=1;marginBottom=0;" vertex="1" collapsed="1" parent="1">
                    <mxGeometry x="290" y="70" width="100" height="26" as="geometry">
                        <mxRectangle x="180" y="220" width="160" height="52" as="alternateBounds"/>
                    </mxGeometry>
                </mxCell>
                <mxCell id="29" value="- term: Term" style="text;strokeColor=none;fillColor=none;align=left;verticalAlign=top;spacingLeft=4;spacingRight=4;overflow=hidden;rotatable=0;points=[[0,0.5],[1,0.5]];portConstraint=eastwest;" vertex="1" parent="28">
                    <mxGeometry y="26" width="100" height="26" as="geometry"/>
                </mxCell>
                <mxCell id="35" style="edgeStyle=none;html=1;exitX=0;exitY=0.5;exitDx=0;exitDy=0;entryX=1;entryY=0.5;entryDx=0;entryDy=0;endArrow=block;endFill=0;rounded=0;" edge="1" parent="1" source="33" target="11">
                    <mxGeometry relative="1" as="geometry"/>
                </mxCell>
                <mxCell id="33" value="BooleanQuery" style="swimlane;fontStyle=1;align=center;verticalAlign=top;childLayout=stackLayout;horizontal=1;startSize=26;horizontalStack=0;resizeParent=1;resizeParentMax=0;resizeLast=0;collapsible=1;marginBottom=0;" vertex="1" collapsed="1" parent="1">
                    <mxGeometry x="290" y="290" width="100" height="26" as="geometry">
                        <mxRectangle x="390" y="230" width="260" height="110" as="alternateBounds"/>
                    </mxGeometry>
                </mxCell>
                <mxCell id="34" value="- minimumNumberShouldMatch: int&#10;&#10;- clauses: List&lt;BooleanClause&gt;&#10;&#10;- clauseSets: Map&lt;Occur, Collection&lt;Query&gt;&gt;" style="text;strokeColor=none;fillColor=none;align=left;verticalAlign=top;spacingLeft=4;spacingRight=4;overflow=hidden;rotatable=0;points=[[0,0.5],[1,0.5]];portConstraint=eastwest;" vertex="1" parent="33">
                    <mxGeometry y="26" width="100" height="84" as="geometry"/>
                </mxCell>
            </root>
        </mxGraphModel>
    </diagram>
</mxfile>